<?xml version="1.0" standalone="no"?>
<!DOCTYPE svg PUBLIC "-//W3C//DTD SVG 20010904//EN"
 "http://www.w3.org/TR/2001/REC-SVG-20010904/DTD/svg10.dtd">
<svg version="1.0" xmlns="http://www.w3.org/2000/svg"
 width="1440.000000pt" height="1440.000000pt" viewBox="0 0 1440.000000 1440.000000"
 preserveAspectRatio="xMidYMid meet">

<g transform="translate(0.000000,1440.000000) scale(0.100000,-0.100000)"
fill="#000000" stroke="none">
<path d="M12480 11781 c5 -11 15 -23 21 -27 6 -3 3 5 -6 20 -20 30 -30 35 -15
7z"/>
<path d="M12526 11725 c4 -8 11 -15 16 -15 6 0 5 6 -2 15 -7 8 -14 15 -16 15
-2 0 -1 -7 2 -15z"/>
<path d="M12550 11696 c0 -2 8 -10 18 -17 15 -13 16 -12 3 4 -13 16 -21 21
-21 13z"/>
<path d="M12597 11636 c10 -13 19 -23 21 -21 5 5 -22 45 -31 45 -4 0 0 -11 10
-24z"/>
<path d="M12386 11588 c10 -14 21 -24 23 -22 3 3 -6 15 -18 27 l-24 22 19 -27z"/>
<path d="M12641 11588 c6 -12 23 -33 37 -47 18 -20 16 -14 -8 22 -35 50 -48
62 -29 25z"/>
<path d="M12460 11501 c0 -6 4 -13 10 -16 6 -3 7 1 4 9 -7 18 -14 21 -14 7z"/>
<path d="M12720 11492 c0 -6 5 -14 10 -17 6 -3 8 -18 5 -33 -4 -20 -3 -22 3
-8 7 16 13 13 45 -31 37 -51 46 -70 27 -58 -5 3 -10 2 -10 -4 0 -16 18 -23 22
-9 3 8 9 4 17 -10 7 -13 21 -32 32 -43 14 -14 18 -27 14 -42 -4 -14 -3 -17 2
-10 7 10 13 8 26 -7 9 -11 17 -24 17 -29 0 -4 9 -16 20 -26 20 -18 28 -41 10
-30 -6 3 -7 -1 -3 -10 4 -12 8 -13 13 -4 6 8 11 6 19 -9 16 -29 14 -37 -6 -21
-15 13 -15 12 -2 -8 8 -14 16 -18 20 -12 4 8 9 7 14 -1 4 -7 1 -16 -6 -22 -10
-7 -7 -7 9 -3 16 5 24 1 29 -12 3 -10 13 -26 20 -35 8 -9 12 -22 7 -29 -4 -8
-3 -10 4 -5 7 4 12 1 12 -7 0 -8 7 -20 15 -27 8 -7 12 -17 9 -22 -3 -5 -15 -1
-26 9 -16 14 -20 14 -16 3 2 -8 14 -19 26 -25 12 -5 22 -14 22 -20 0 -5 4 -4
9 3 6 10 13 3 26 -25 10 -21 26 -46 36 -56 13 -12 17 -26 13 -41 -3 -13 -1
-27 5 -30 7 -4 8 -1 5 8 -12 31 5 15 22 -19 9 -19 20 -35 25 -35 5 0 9 -5 9
-11 0 -5 -4 -7 -10 -4 -5 3 -10 2 -10 -4 0 -5 5 -13 10 -16 6 -3 10 0 10 7 0
9 3 9 10 -2 5 -8 7 -24 4 -35 -4 -17 -3 -18 6 -5 10 12 11 11 7 -7 -3 -12 0
-21 5 -20 16 3 21 -21 6 -26 -7 -2 -6 -3 3 -2 16 2 45 -40 41 -57 -1 -5 3 -8
8 -8 6 0 10 -9 10 -21 0 -11 4 -18 9 -14 11 6 25 -31 16 -45 -3 -5 5 -19 19
-31 13 -12 30 -35 37 -53 27 -69 49 -115 59 -121 5 -3 7 -12 3 -20 -3 -8 -1
-15 5 -15 11 0 46 -80 38 -88 -3 -3 -10 6 -16 19 -10 22 -10 22 -6 2 2 -12 1
-24 -3 -26 -3 -2 0 -2 7 -1 6 2 12 -2 12 -9 0 -9 2 -9 8 0 5 9 15 -2 30 -32
12 -25 22 -50 22 -55 0 -6 15 -43 34 -83 38 -83 60 -136 77 -192 7 -22 18 -46
24 -54 7 -10 6 -15 -2 -18 -7 -3 -13 -9 -13 -15 0 -6 7 -8 14 -5 18 7 30 -24
21 -55 -4 -16 -3 -19 3 -10 10 15 26 -17 38 -78 3 -19 21 -71 39 -116 18 -44
36 -101 40 -125 8 -47 23 -84 32 -76 10 11 -94 326 -188 569 -155 398 -387
863 -592 1186 -156 246 -417 611 -417 584z"/>
<path d="M12530 11406 c0 -2 7 -9 15 -16 13 -11 14 -10 9 4 -5 14 -24 23 -24
12z"/>
<path d="M12580 11353 c1 -11 50 -70 50 -59 0 4 -11 21 -25 38 -14 16 -25 26
-25 21z"/>
<path d="M12800 11301 c0 -10 19 -25 25 -20 1 2 -3 10 -11 17 -8 7 -14 8 -14
3z"/>
<path d="M12711 11170 c44 -63 82 -116 84 -118 2 -2 2 8 1 21 0 14 -4 23 -8
20 -5 -2 -17 12 -29 31 -12 20 -25 36 -30 36 -5 0 -9 6 -9 13 0 6 -21 35 -46
62 -33 37 -23 19 37 -65z"/>
<path d="M12910 11173 c0 -7 5 -15 11 -18 6 -4 8 -14 4 -24 -5 -12 -3 -13 6
-4 9 9 8 17 -5 34 -9 13 -16 18 -16 12z"/>
<path d="M12891 11134 c0 -11 3 -14 6 -6 3 7 2 16 -1 19 -3 4 -6 -2 -5 -13z"/>
<path d="M12786 11123 c-6 -14 -5 -15 5 -6 7 7 10 15 7 18 -3 3 -9 -2 -12 -12z"/>
<path d="M12874 10931 c184 -283 226 -356 372 -636 45 -88 110 -223 144 -300
33 -77 65 -149 70 -160 6 -11 21 -47 34 -80 21 -50 25 -55 23 -28 -1 18 -6 33
-11 33 -6 0 -5 5 2 12 14 14 16 32 3 23 -11 -6 -73 104 -65 116 3 5 0 9 -5 9
-6 0 -11 6 -11 13 0 7 -9 32 -20 55 -11 22 -20 46 -20 52 0 5 -4 10 -9 10 -5
0 -15 17 -22 38 -6 20 -20 53 -30 72 -11 19 -19 40 -19 46 0 6 -7 17 -15 24
-8 7 -15 27 -15 44 0 25 -2 28 -11 16 -9 -12 -10 -11 -6 6 2 12 1 28 -4 35 -7
12 -9 11 -9 -1 0 -13 -1 -13 -10 0 -5 8 -7 24 -4 35 4 16 3 17 -5 5 -8 -12
-13 -8 -25 22 -9 20 -13 45 -10 55 4 13 3 14 -4 5 -7 -10 -15 -1 -32 35 -12
26 -25 50 -29 53 -13 9 -61 99 -61 113 0 8 -7 17 -15 21 -9 3 -12 12 -8 22 5
13 3 15 -7 9 -10 -6 -12 -4 -7 9 10 24 -29 87 -48 79 -17 -6 -38 38 -29 61 3
8 1 17 -5 21 -7 4 -9 -1 -5 -12 4 -14 1 -12 -15 6 -12 13 -21 29 -21 36 0 7
-7 18 -15 25 -8 7 -12 17 -8 24 3 6 3 8 -2 4 -4 -4 -21 13 -36 37 -16 25 -33
45 -37 45 -5 0 23 -49 62 -109z m156 -206 c-1 -16 -40 38 -40 55 0 8 9 2 20
-15 11 -16 20 -34 20 -40z"/>
<path d="M12840 11036 c0 -2 7 -9 15 -16 13 -11 14 -10 9 4 -5 14 -24 23 -24
12z"/>
<path d="M13046 10973 c-6 -14 -5 -15 5 -6 7 7 10 15 7 18 -3 3 -9 -2 -12 -12z"/>
<path d="M12910 10940 c0 -5 5 -10 11 -10 5 0 7 5 4 10 -3 6 -8 10 -11 10 -2
0 -4 -4 -4 -10z"/>
<path d="M12930 10900 c0 -5 7 -7 15 -4 8 4 15 8 15 10 0 2 -7 4 -15 4 -8 0
-15 -4 -15 -10z"/>
<path d="M13046 10895 c4 -8 11 -15 16 -15 6 0 5 6 -2 15 -7 8 -14 15 -16 15
-2 0 -1 -7 2 -15z"/>
<path d="M13140 10820 c0 -5 5 -10 10 -10 6 0 10 5 10 10 0 6 -4 10 -10 10 -5
0 -10 -4 -10 -10z"/>
<path d="M13026 10787 c3 -10 9 -15 12 -12 3 3 0 11 -7 18 -10 9 -11 8 -5 -6z"/>
<path d="M13090 10716 c0 -2 7 -9 15 -16 13 -11 14 -10 9 4 -5 14 -24 23 -24
12z"/>
<path d="M13070 10685 c7 -9 15 -13 17 -11 7 7 -7 26 -19 26 -6 0 -6 -6 2 -15z"/>
<path d="M13220 10690 c0 -5 5 -10 11 -10 5 0 7 5 4 10 -3 6 -8 10 -11 10 -2
0 -4 -4 -4 -10z"/>
<path d="M13200 10664 c0 -8 5 -12 10 -9 6 4 8 11 5 16 -9 14 -15 11 -15 -7z"/>
<path d="M13097 10625 c3 -8 9 -12 14 -9 12 7 11 11 -5 17 -10 4 -13 1 -9 -8z"/>
<path d="M13297 10500 c3 -11 9 -20 15 -20 5 0 4 9 -2 20 -6 11 -12 20 -14 20
-2 0 -2 -9 1 -20z"/>
<path d="M1012 10490 c-18 -29 -15 -38 4 -12 9 13 14 25 12 27 -2 2 -9 -5 -16
-15z"/>
<path d="M985 10439 c-4 -6 -5 -12 -2 -15 2 -3 7 2 10 11 7 17 1 20 -8 4z"/>
<path d="M13258 10373 c5 -21 7 -23 10 -9 2 10 0 22 -6 28 -6 6 -7 0 -4 -19z"/>
<path d="M927 10323 c-15 -31 -26 -57 -24 -59 2 -2 16 21 31 52 16 30 26 57
24 59 -2 2 -16 -22 -31 -52z"/>
<path d="M13407 10339 c7 -7 15 -10 18 -7 3 3 -2 9 -12 12 -14 6 -15 5 -6 -5z"/>
<path d="M886 10241 c-11 -17 -27 -66 -19 -56 12 13 34 65 28 65 -2 0 -6 -4
-9 -9z"/>
<path d="M13310 10231 c0 -5 5 -13 10 -16 6 -3 10 -2 10 4 0 5 -4 13 -10 16
-5 3 -10 2 -10 -4z"/>
<path d="M13340 10235 c0 -5 5 -17 10 -25 5 -8 10 -10 10 -5 0 6 -5 17 -10 25
-5 8 -10 11 -10 5z"/>
<path d="M13471 10205 c1 -22 16 -48 22 -38 3 5 0 19 -8 29 -8 10 -14 15 -14
9z"/>
<path d="M13330 10191 c0 -6 4 -13 10 -16 6 -3 7 1 4 9 -7 18 -14 21 -14 7z"/>
<path d="M13440 10195 c0 -5 5 -17 10 -25 5 -8 10 -10 10 -5 0 6 -5 17 -10 25
-5 8 -10 11 -10 5z"/>
<path d="M830 10122 c-14 -26 -26 -50 -28 -54 -2 -5 1 -8 8 -8 6 0 8 5 5 10
-3 6 -2 10 3 10 10 0 48 78 40 85 -2 2 -15 -17 -28 -43z"/>
<path d="M1046 10125 c-9 -26 -7 -32 5 -12 6 10 9 21 6 23 -2 3 -7 -2 -11 -11z"/>
<path d="M13412 10049 c-7 -12 -11 -24 -7 -27 7 -8 25 17 25 36 0 17 -3 15
-18 -9z"/>
<path d="M13527 10046 c-4 -10 -5 -21 -2 -24 9 -9 17 6 13 25 -3 17 -4 17 -11
-1z"/>
<path d="M781 10013 c-8 -21 -26 -65 -41 -98 -54 -119 -161 -408 -215 -580
-291 -925 -393 -1878 -299 -2805 33 -326 93 -697 108 -671 5 7 4 23 -2 34 -11
22 -43 223 -46 282 0 17 -4 32 -8 35 -4 3 -8 35 -9 70 -1 36 -7 70 -12 77 -5
7 -6 26 -2 43 4 17 2 36 -3 43 -5 7 -12 50 -16 97 -4 47 -9 103 -11 125 -17
171 -22 400 -10 455 4 20 3 22 -5 10 -8 -11 -10 30 -8 147 2 90 5 163 8 163 3
0 5 21 4 47 -1 66 14 301 27 398 5 44 12 96 14 115 2 19 7 67 10 105 3 39 10
95 16 125 5 30 12 78 15 105 3 28 13 84 23 125 11 41 22 98 26 125 3 28 11 74
17 102 10 47 13 51 25 35 12 -15 12 -14 3 8 -8 18 -7 42 4 90 30 132 63 243
69 229 3 -8 4 2 1 21 -4 29 -2 31 6 15 8 -16 9 -14 4 12 -3 17 0 42 7 55 7 12
20 52 30 88 48 174 55 199 65 211 6 8 23 55 39 104 16 50 37 107 47 127 10 20
18 41 18 46 0 5 6 22 13 38 8 16 25 57 38 91 16 42 26 58 32 50 6 -8 7 -7 4 5
-3 9 3 40 14 68 11 29 18 57 17 62 -2 5 -10 -8 -17 -29z"/>
<path d="M13561 10024 c0 -11 3 -14 6 -6 3 7 2 16 -1 19 -3 4 -6 -2 -5 -13z"/>
<path d="M976 9963 c-6 -14 -5 -15 5 -6 7 7 10 15 7 18 -3 3 -9 -2 -12 -12z"/>
<path d="M13601 9925 c0 -11 4 -29 8 -40 8 -19 8 -19 16 4 5 16 2 28 -9 39
-15 15 -16 15 -15 -3z"/>
<path d="M927 9853 c-20 -43 -39 -90 -43 -105 -3 -16 -10 -28 -15 -28 -5 0 -9
-4 -9 -10 0 -24 20 -7 31 28 6 20 27 70 46 111 18 40 32 75 30 77 -2 2 -20
-31 -40 -73z"/>
<path d="M13501 9911 c-10 -7 -11 -13 -2 -30 15 -27 16 -27 16 9 0 17 0 30 0
30 0 0 -6 -4 -14 -9z"/>
<path d="M13471 9883 c11 -34 19 -42 19 -20 0 7 -7 22 -15 33 -13 17 -14 16
-4 -13z"/>
<path d="M781 9884 c0 -11 3 -14 6 -6 3 7 2 16 -1 19 -3 4 -6 -2 -5 -13z"/>
<path d="M13681 9760 c0 -8 4 -24 9 -35 5 -13 9 -14 9 -5 0 8 -4 24 -9 35 -5
13 -9 14 -9 5z"/>
<path d="M13701 9684 c0 -11 3 -14 6 -6 3 7 2 16 -1 19 -3 4 -6 -2 -5 -13z"/>
<path d="M816 9578 c-22 -57 -41 -109 -44 -117 -3 -9 -1 -12 6 -8 6 4 23 44
38 90 15 45 33 94 41 110 7 15 10 27 6 27 -5 0 -26 -46 -47 -102z"/>
<path d="M13526 9669 c7 -8 26 -57 44 -109 18 -52 36 -97 40 -100 4 -3 7 -12
8 -20 0 -8 12 -46 26 -85 21 -56 25 -62 22 -32 -3 22 -1 35 4 32 6 -3 7 1 3
10 -4 12 -8 13 -13 5 -5 -8 -10 -3 -14 13 -3 14 -9 33 -13 43 -5 13 -3 15 7 9
16 -10 6 10 -21 40 -9 11 -22 36 -28 55 -27 93 -49 144 -62 149 -11 3 -11 1
-3 -10z"/>
<path d="M13580 9660 c0 -5 5 -10 10 -10 6 0 10 5 10 10 0 6 -4 10 -10 10 -5
0 -10 -4 -10 -10z"/>
<path d="M13686 9625 c-9 -26 -7 -32 5 -12 6 10 9 21 6 23 -2 3 -7 -2 -11 -11z"/>
<path d="M13570 9620 c0 -5 5 -10 11 -10 5 0 7 5 4 10 -3 6 -8 10 -11 10 -2 0
-4 -4 -4 -10z"/>
<path d="M606 9502 c-2 -4 -1 -14 5 -22 7 -12 9 -10 9 8 0 23 -5 28 -14 14z"/>
<path d="M13640 9490 c0 -5 5 -10 10 -10 6 0 10 5 10 10 0 6 -4 10 -10 10 -5
0 -10 -4 -10 -10z"/>
<path d="M752 9470 c0 -14 2 -19 5 -12 2 6 2 18 0 25 -3 6 -5 1 -5 -13z"/>
<path d="M13771 9464 c0 -11 3 -14 6 -6 3 7 2 16 -1 19 -3 4 -6 -2 -5 -13z"/>
<path d="M13671 9454 c0 -11 3 -14 6 -6 3 7 2 16 -1 19 -3 4 -6 -2 -5 -13z"/>
<path d="M731 9434 c0 -11 3 -14 6 -6 3 7 2 16 -1 19 -3 4 -6 -2 -5 -13z"/>
<path d="M750 9400 c-7 -22 -16 -40 -19 -40 -3 0 -6 -14 -7 -30 -1 -17 -8 -47
-17 -68 -8 -20 -21 -59 -28 -87 -12 -44 -14 -47 -20 -25 -4 14 -7 18 -8 8 -1
-9 -4 -24 -8 -34 -5 -13 -3 -15 7 -9 10 6 12 4 7 -8 -3 -8 -9 -32 -13 -51 -3
-20 -10 -36 -15 -36 -5 0 -9 -9 -9 -20 0 -37 17 -21 30 28 17 67 98 330 115
375 8 20 11 37 7 37 -5 0 -15 -18 -22 -40z"/>
<path d="M552 9330 c0 -14 2 -19 5 -12 2 6 2 18 0 25 -3 6 -5 1 -5 -13z"/>
<path d="M534 9275 c-3 -13 -4 -30 -1 -37 3 -7 6 0 6 15 1 16 5 26 11 22 6 -3
7 1 4 9 -8 22 -13 20 -20 -9z"/>
<path d="M650 9264 c0 -8 5 -12 10 -9 6 3 10 10 10 16 0 5 -4 9 -10 9 -5 0
-10 -7 -10 -16z"/>
<path d="M13674 9260 c3 -14 6 -28 6 -31 0 -4 7 -9 14 -12 17 -7 12 16 -12 48
-14 19 -14 19 -8 -5z"/>
<path d="M671 9234 c0 -11 3 -14 6 -6 3 7 2 16 -1 19 -3 4 -6 -2 -5 -13z"/>
<path d="M515 9211 c-3 -5 -1 -12 5 -16 5 -3 10 1 10 9 0 18 -6 21 -15 7z"/>
<path d="M645 9199 c-4 -5 -4 -13 -1 -16 3 -4 6 0 6 8 0 11 2 11 10 -1 6 -9
10 -10 10 -3 0 17 -17 25 -25 12z"/>
<path d="M13716 9120 c14 -44 47 -166 74 -272 27 -106 49 -188 49 -182 1 14
-34 182 -50 239 -6 22 -10 49 -10 60 0 11 -7 31 -17 45 -11 17 -16 44 -15 84
1 36 -2 54 -7 45 -7 -10 -11 -7 -19 14 -6 16 -11 33 -11 38 0 5 -4 9 -9 9 -5
0 2 -36 15 -80z"/>
<path d="M13872 9158 c7 -15 15 -23 17 -17 2 6 -4 18 -13 27 -15 15 -15 15 -4
-10z"/>
<path d="M5415 7190 c0 -1081 1 -1523 2 -983 2 541 2 1425 0 1965 -1 541 -2
99 -2 -982z"/>
<path d="M13850 9130 c0 -5 5 -10 11 -10 5 0 7 5 4 10 -3 6 -8 10 -11 10 -2 0
-4 -4 -4 -10z"/>
<path d="M13917 9134 c-3 -4 -3 -14 2 -23 5 -9 11 -29 15 -44 5 -21 4 -27 -6
-21 -6 4 -3 -8 9 -27 11 -19 26 -65 34 -104 7 -38 16 -74 19 -80 7 -9 31 -112
45 -185 2 -14 9 -47 15 -75 6 -27 13 -61 16 -74 3 -13 7 -21 10 -18 3 3 -2 45
-12 94 -17 89 -132 554 -138 560 -1 2 -6 0 -9 -3z"/>
<path d="M461 9018 c-1 -9 -4 -24 -8 -34 -5 -12 -3 -15 6 -9 10 6 11 2 7 -16
-5 -18 -4 -20 3 -9 5 9 6 30 1 50 -4 19 -8 27 -9 18z"/>
<path d="M13921 9000 c1 -8 4 -26 8 -40 5 -18 8 -21 12 -10 3 8 0 26 -8 40 -7
14 -12 18 -12 10z"/>
<path d="M442 8940 c0 -14 2 -19 5 -12 2 6 2 18 0 25 -3 6 -5 1 -5 -13z"/>
<path d="M571 8944 c0 -11 3 -14 6 -6 3 7 2 16 -1 19 -3 4 -6 -2 -5 -13z"/>
<path d="M606 8913 c-8 -26 -22 -79 -31 -118 -8 -38 -20 -80 -26 -92 -7 -12
-8 -30 -4 -40 6 -14 10 -10 17 22 6 22 23 92 38 155 30 120 33 155 6 73z"/>
<path d="M13800 8914 c0 -16 5 -36 10 -44 6 -10 7 -2 3 25 -7 49 -13 58 -13
19z"/>
<path d="M563 8900 c2 -30 22 -34 23 -5 l1 20 -5 -20 c-5 -18 -6 -18 -13 5
l-8 25 2 -25z"/>
<path d="M425 8890 c-3 -5 -1 -10 4 -10 6 0 11 5 11 10 0 6 -2 10 -4 10 -3 0
-8 -4 -11 -10z"/>
<path d="M455 8890 c-3 -5 -1 -10 4 -10 6 0 11 5 11 10 0 6 -2 10 -4 10 -3 0
-8 -4 -11 -10z"/>
<path d="M13820 8824 c0 -10 5 -26 10 -34 8 -11 9 -7 4 15 -8 37 -14 45 -14
19z"/>
<path d="M14001 8684 c0 -11 3 -14 6 -6 3 7 2 16 -1 19 -3 4 -6 -2 -5 -13z"/>
<path d="M366 8638 c3 -5 10 -6 15 -3 13 9 11 12 -6 12 -8 0 -12 -4 -9 -9z"/>
<path d="M520 8558 c-12 -72 -15 -79 -22 -53 -6 24 -6 23 -3 -10 5 -43 -12
-186 -25 -220 -5 -11 -11 -49 -14 -85 -2 -36 -8 -73 -11 -83 -4 -9 -3 -17 2
-17 5 0 21 80 37 178 15 97 31 191 36 207 5 17 12 46 14 65 3 19 8 50 12 68 4
18 2 32 -3 32 -5 0 -16 -37 -23 -82z"/>
<path d="M13845 8605 c4 -22 10 -53 15 -70 5 -16 12 -50 15 -75 4 -25 9 -54
11 -65 8 -41 35 -213 46 -297 7 -49 16 -88 20 -88 11 0 1 73 -47 355 -14 83
-30 163 -35 179 -5 15 -8 32 -5 36 3 4 -2 21 -10 36 l-16 29 6 -40z"/>
<path d="M13901 8614 c0 -11 3 -14 6 -6 3 7 2 16 -1 19 -3 4 -6 -2 -5 -13z"/>
<path d="M500 8610 c0 -5 5 -10 10 -10 6 0 10 5 10 10 0 6 -4 10 -10 10 -5 0
-10 -4 -10 -10z"/>
<path d="M14014 8606 c-3 -8 -4 -31 -2 -52 3 -36 4 -35 8 14 5 53 4 63 -6 38z"/>
<path d="M13882 8570 c0 -14 2 -19 5 -12 2 6 2 18 0 25 -3 6 -5 1 -5 -13z"/>
<path d="M13900 8550 c0 -11 2 -20 4 -20 2 0 6 9 9 20 3 11 1 20 -4 20 -5 0
-9 -9 -9 -20z"/>
<path d="M14030 8505 c0 -14 4 -25 9 -25 4 0 6 11 3 25 -2 14 -6 25 -8 25 -2
0 -4 -11 -4 -25z"/>
<path d="M13892 8505 c-1 -11 2 -26 7 -33 7 -11 9 -10 14 3 4 9 3 13 -2 10 -5
-3 -12 5 -14 17 -4 20 -4 20 -5 3z"/>
<path d="M355 8490 c3 -5 8 -10 11 -10 2 0 4 5 4 10 0 6 -5 10 -11 10 -5 0 -7
-4 -4 -10z"/>
<path d="M9000 8455 c0 -5 5 -17 10 -25 5 -8 10 -10 10 -5 0 6 -5 17 -10 25
-5 8 -10 11 -10 5z"/>
<path d="M14081 8420 c0 -25 6 -58 14 -75 l14 -30 -5 40 c-4 22 -10 56 -14 75
l-8 35 -1 -45z"/>
<path d="M13911 8434 c0 -11 3 -14 6 -6 3 7 2 16 -1 19 -3 4 -6 -2 -5 -13z"/>
<path d="M9041 8334 c0 -11 3 -14 6 -6 3 7 2 16 -1 19 -3 4 -6 -2 -5 -13z"/>
<path d="M9051 8302 c-2 -19 29 -215 35 -221 2 -3 2 22 -2 55 -7 64 -31 187
-33 166z"/>
<path d="M14107 8260 c3 -30 7 -83 7 -116 1 -34 4 -57 8 -50 4 6 8 -7 9 -29 2
-86 10 -161 18 -185 5 -14 12 -70 16 -125 3 -55 8 -136 11 -180 16 -266 -3
-1009 -27 -1057 -11 -21 -12 -78 -1 -78 11 0 29 185 44 445 16 288 -3 855 -37
1085 -3 19 -7 55 -9 80 -13 135 -28 235 -36 249 -7 11 -8 -1 -3 -39z"/>
<path d="M311 8274 c0 -11 3 -14 6 -6 3 7 2 16 -1 19 -3 4 -6 -2 -5 -13z"/>
<path d="M14092 8225 c0 -16 2 -22 5 -12 2 9 2 23 0 30 -3 6 -5 -1 -5 -18z"/>
<path d="M412 8185 c0 -16 2 -22 5 -12 2 9 2 23 0 30 -3 6 -5 -1 -5 -18z"/>
<path d="M302 8180 c0 -14 2 -19 5 -12 2 6 2 18 0 25 -3 6 -5 1 -5 -13z"/>
<path d="M283 8135 c0 -33 2 -45 4 -27 2 18 2 45 0 60 -2 15 -4 0 -4 -33z"/>
<path d="M14081 8164 c0 -11 3 -14 6 -6 3 7 2 16 -1 19 -3 4 -6 -2 -5 -13z"/>
<path d="M421 8139 c-7 -12 -10 -23 -8 -26 3 -3 11 5 17 17 15 28 8 35 -9 9z"/>
<path d="M12350 8150 c-9 -6 -10 -10 -3 -10 6 0 15 5 18 10 8 12 4 12 -15 0z"/>
<path d="M13961 8144 c0 -11 3 -14 6 -6 3 7 2 16 -1 19 -3 4 -6 -2 -5 -13z"/>
<path d="M14101 8144 c0 -11 3 -14 6 -6 3 7 2 16 -1 19 -3 4 -6 -2 -5 -13z"/>
<path d="M14091 8094 c0 -11 3 -14 6 -6 3 7 2 16 -1 19 -3 4 -6 -2 -5 -13z"/>
<path d="M13960 8080 c0 -6 4 -9 9 -5 5 3 12 -7 14 -22 l5 -28 -2 29 c-1 27
-26 52 -26 26z"/>
<path d="M432 8027 c-2 -28 -7 -101 -13 -162 -25 -270 -45 -880 -30 -899 5 -6
11 -78 14 -161 3 -82 13 -224 22 -315 10 -91 19 -195 22 -232 2 -38 9 -68 14
-68 5 0 9 -7 9 -15 0 -8 -5 -15 -12 -15 -7 0 -5 -7 5 -17 10 -12 17 -42 19
-85 2 -36 6 -64 10 -62 12 8 19 -91 9 -119 -15 -39 -12 -48 3 -13 13 28 14 25
26 -55 7 -46 16 -88 20 -94 4 -5 10 -26 13 -45 3 -19 15 -71 27 -115 13 -44
25 -96 28 -115 2 -19 8 -39 12 -45 4 -5 11 -26 15 -45 4 -19 18 -70 32 -113
14 -43 22 -81 19 -84 -3 -4 0 -13 8 -22 21 -25 38 -86 31 -114 -4 -14 -2 -34
4 -44 8 -14 9 -11 4 17 -10 58 5 29 47 -90 41 -116 79 -204 86 -197 2 2 -5 21
-15 43 -21 44 -104 277 -131 369 -10 33 -25 83 -35 110 -27 78 -100 355 -134
510 -67 298 -113 614 -143 980 -16 191 -16 787 0 970 6 77 14 178 18 225 3 47
9 104 14 128 5 29 4 42 -4 42 -6 0 -12 -22 -14 -53z"/>
<path d="M9083 7938 c1 -65 5 -118 10 -118 9 0 7 178 -3 210 -5 15 -8 -21 -7
-92z"/>
<path d="M408 8015 c-3 -14 -1 -25 3 -25 5 0 9 11 9 25 0 14 -2 25 -4 25 -2 0
-6 -11 -8 -25z"/>
<path d="M13951 7973 c-1 -21 6 -40 19 -53 23 -23 27 -14 6 16 -8 11 -16 31
-19 44 -4 21 -5 20 -6 -7z"/>
<path d="M13954 7883 c3 -21 8 -56 10 -79 13 -99 21 -364 20 -674 0 -224 3
-323 9 -300 9 34 4 747 -7 880 -13 170 -18 210 -27 210 -5 0 -7 -17 -5 -37z"/>
<path d="M9073 7732 c-2 -27 0 -33 7 -22 12 18 13 47 3 53 -5 3 -9 -11 -10
-31z"/>
<path d="M9067 7666 c-4 -10 -7 -25 -6 -34 0 -11 4 -9 10 7 5 13 8 29 6 35 -2
5 -6 2 -10 -8z"/>
<path d="M9046 7564 c-3 -26 -4 -49 -2 -52 3 -2 8 17 11 43 4 25 5 48 3 51 -3
2 -8 -17 -12 -42z"/>
<path d="M232 7495 c0 -16 2 -22 5 -12 2 9 2 23 0 30 -3 6 -5 -1 -5 -18z"/>
<path d="M14161 7134 c0 -11 3 -14 6 -6 3 7 2 16 -1 19 -3 4 -6 -2 -5 -13z"/>
<path d="M14162 7055 c0 -16 2 -22 5 -12 2 9 2 23 0 30 -3 6 -5 -1 -5 -18z"/>
<path d="M221 6944 c0 -11 3 -14 6 -6 3 7 2 16 -1 19 -3 4 -6 -2 -5 -13z"/>
<path d="M13971 6750 c2 -33 -6 -149 -16 -235 -4 -26 -2 -35 4 -26 7 12 18 97
26 217 1 11 5 26 9 33 5 8 2 19 -9 29 -15 16 -16 15 -14 -18z"/>
<path d="M13992 6660 c0 -14 2 -19 5 -12 2 6 2 18 0 25 -3 6 -5 1 -5 -13z"/>
<path d="M13991 6594 c0 -11 3 -14 6 -6 3 7 2 16 -1 19 -3 4 -6 -2 -5 -13z"/>
<path d="M400 6504 c0 -10 5 -26 10 -34 8 -11 9 -7 4 15 -8 37 -14 45 -14 19z"/>
<path d="M13950 6453 c0 -12 -3 -28 -6 -37 -3 -9 -2 -16 4 -16 13 0 23 53 11
65 -5 5 -9 1 -9 -12z"/>
<path d="M14132 6400 c1 -14 0 -47 -2 -75 l-3 -50 -8 60 c-6 53 -6 51 -3 -22
3 -94 -4 -155 -18 -147 -6 4 -8 -1 -4 -12 7 -24 -10 -183 -22 -198 -5 -6 -16
-58 -23 -116 -11 -85 -15 -98 -20 -70 -5 24 -6 18 -3 -20 1 -30 0 -47 -4 -37
-5 12 -8 -3 -9 -39 -1 -32 -8 -74 -16 -93 -9 -20 -28 -88 -43 -151 -15 -63
-44 -169 -65 -235 -22 -66 -39 -127 -39 -135 0 -9 -9 -33 -20 -55 -11 -22 -20
-43 -20 -48 0 -5 -6 -23 -14 -40 -8 -18 -19 -53 -26 -79 -15 -56 -75 -209 -81
-204 -2 3 -5 -12 -6 -32 -2 -32 1 -27 28 38 43 105 118 320 112 320 -3 0 -1 6
5 13 12 14 90 262 127 402 15 55 33 125 41 155 18 65 22 86 63 290 64 314 98
564 81 590 -7 12 -9 10 -8 -10z"/>
<path d="M14092 6390 c0 -14 2 -19 5 -12 2 6 2 18 0 25 -3 6 -5 1 -5 -13z"/>
<path d="M13926 6263 c-10 -71 -22 -144 -26 -163 -5 -19 -11 -53 -14 -75 -12
-96 -57 -312 -101 -478 -29 -112 -28 -107 -14 -107 5 0 7 5 4 10 -4 6 -3 16 3
23 5 7 15 41 22 76 10 50 15 60 22 45 6 -13 6 -10 3 11 -5 29 11 126 33 196 6
19 16 65 22 103 6 39 14 74 17 80 4 5 7 19 8 30 5 78 18 173 25 181 4 6 11 44
15 85 3 41 9 83 11 93 3 9 1 17 -4 17 -5 0 -17 -57 -26 -127z"/>
<path d="M13971 6353 c-7 -17 -11 -42 -8 -55 3 -19 5 -18 6 8 0 16 6 35 12 41
6 6 9 17 7 24 -2 7 -10 -1 -17 -18z"/>
<path d="M282 6290 c0 -19 2 -27 5 -17 2 9 2 25 0 35 -3 9 -5 1 -5 -18z"/>
<path d="M13981 6304 c0 -11 3 -14 6 -6 3 7 2 16 -1 19 -3 4 -6 -2 -5 -13z"/>
<path d="M14092 6300 c0 -14 2 -19 5 -12 2 6 2 18 0 25 -3 6 -5 1 -5 -13z"/>
<path d="M300 6266 c0 -14 4 -27 8 -30 5 -3 6 8 4 25 -5 35 -12 38 -12 5z"/>
<path d="M14102 6240 c0 -14 2 -19 5 -12 2 6 2 18 0 25 -3 6 -5 1 -5 -13z"/>
<path d="M13991 6174 c0 -11 3 -14 6 -6 3 7 2 16 -1 19 -3 4 -6 -2 -5 -13z"/>
<path d="M311 6064 c0 -11 3 -14 6 -6 3 7 2 16 -1 19 -3 4 -6 -2 -5 -13z"/>
<path d="M13911 5964 c0 -11 3 -14 6 -6 3 7 2 16 -1 19 -3 4 -6 -2 -5 -13z"/>
<path d="M491 5924 c0 -11 3 -14 6 -6 3 7 2 16 -1 19 -3 4 -6 -2 -5 -13z"/>
<path d="M14030 5898 c0 -19 2 -20 10 -8 13 19 13 30 0 30 -5 0 -10 -10 -10
-22z"/>
<path d="M481 5884 c0 -11 3 -14 6 -6 3 7 2 16 -1 19 -3 4 -6 -2 -5 -13z"/>
<path d="M13907 5873 c-4 -3 -7 -18 -6 -32 1 -26 1 -25 10 3 9 31 7 41 -4 29z"/>
<path d="M341 5847 c-43 -53 232 -991 394 -1342 7 -17 19 -44 25 -60 9 -23 13
-26 20 -15 6 8 10 20 10 25 0 6 -4 4 -9 -4 -6 -10 -12 -4 -21 23 -6 20 -9 43
-6 51 3 10 0 12 -11 8 -13 -5 -15 -2 -10 11 4 10 3 15 -3 11 -9 -6 -15 22 -11
54 2 8 -2 10 -10 6 -9 -6 -10 -1 -6 16 15 55 17 72 4 40 l-13 -34 -28 74 c-16
41 -29 86 -30 101 0 14 -4 24 -8 22 -7 -5 -48 111 -48 138 0 10 -4 18 -8 18
-4 0 -13 14 -20 32 -9 25 -9 34 1 40 8 5 8 8 1 8 -6 0 -21 33 -34 73 -12 39
-26 82 -32 94 -6 11 -7 26 -4 32 4 6 2 11 -3 11 -6 0 -11 8 -11 18 0 9 -7 35
-15 57 -7 22 -12 58 -10 80 4 36 3 37 -4 10 l-9 -30 -1 28 c0 16 -7 43 -15 60
-7 18 -19 59 -26 92 -6 33 -17 83 -23 110 -6 28 -11 74 -11 103 -1 28 -2 52
-2 52 -1 0 -6 -6 -13 -13z"/>
<path d="M14006 5843 c-6 -14 -5 -15 5 -6 7 7 10 15 7 18 -3 3 -9 -2 -12 -12z"/>
<path d="M381 5824 c0 -11 3 -14 6 -6 3 7 2 16 -1 19 -3 4 -6 -2 -5 -13z"/>
<path d="M13891 5794 c0 -11 3 -14 6 -6 3 7 2 16 -1 19 -3 4 -6 -2 -5 -13z"/>
<path d="M384 5731 c-1 -47 1 -57 6 -36 10 41 12 93 3 98 -5 3 -8 -25 -9 -62z"/>
<path d="M511 5774 c0 -11 3 -14 6 -6 3 7 2 16 -1 19 -3 4 -6 -2 -5 -13z"/>
<path d="M13911 5774 c0 -11 3 -14 6 -6 3 7 2 16 -1 19 -3 4 -6 -2 -5 -13z"/>
<path d="M13820 5539 c0 -11 -4 -17 -10 -14 -15 9 -12 -4 4 -20 12 -12 14 -9
18 20 2 19 0 35 -4 35 -4 0 -8 -9 -8 -21z"/>
<path d="M570 5535 c0 -5 5 -17 10 -25 5 -8 10 -10 10 -5 0 6 -5 17 -10 25 -5
8 -10 11 -10 5z"/>
<path d="M561 5474 c0 -11 3 -14 6 -6 3 7 2 16 -1 19 -3 4 -6 -2 -5 -13z"/>
<path d="M13801 5474 c0 -11 3 -14 6 -6 3 7 2 16 -1 19 -3 4 -6 -2 -5 -13z"/>
<path d="M13921 5474 c0 -11 3 -14 6 -6 3 7 2 16 -1 19 -3 4 -6 -2 -5 -13z"/>
<path d="M13941 5474 c0 -11 3 -14 6 -6 3 7 2 16 -1 19 -3 4 -6 -2 -5 -13z"/>
<path d="M460 5428 c0 -9 5 -20 10 -23 13 -8 13 5 0 25 -8 13 -10 13 -10 -2z"/>
<path d="M13751 5413 c-1 -12 -5 -32 -10 -45 -6 -13 -24 -70 -41 -128 -51
-170 -147 -446 -169 -488 -7 -13 -10 -26 -7 -30 4 -3 14 14 23 37 16 42 17 42
29 19 8 -13 13 -19 14 -15 0 5 -4 16 -9 26 -11 20 -3 64 10 55 5 -3 7 1 4 8
-3 7 11 58 31 113 19 55 41 118 48 140 7 22 15 47 18 55 21 55 69 251 65 262
-3 7 -6 4 -6 -9z"/>
<path d="M13921 5394 c0 -11 3 -14 6 -6 3 7 2 16 -1 19 -3 4 -6 -2 -5 -13z"/>
<path d="M460 5375 c0 -5 5 -17 10 -25 5 -8 10 -10 10 -5 0 6 -5 17 -10 25 -5
8 -10 11 -10 5z"/>
<path d="M13751 5328 c0 -9 -4 -25 -7 -35 -5 -17 -5 -17 6 0 6 10 9 25 7 35
-4 15 -5 15 -6 0z"/>
<path d="M650 5249 c0 -9 7 -32 15 -50 18 -44 19 -26 0 26 -8 22 -14 33 -15
24z"/>
<path d="M13731 5244 c0 -11 3 -14 6 -6 3 7 2 16 -1 19 -3 4 -6 -2 -5 -13z"/>
<path d="M13849 5223 c-3 -18 -2 -30 3 -27 4 3 8 -1 8 -8 0 -8 5 -6 11 5 6 10
8 21 5 24 -3 4 -7 0 -7 -8 -1 -8 -4 0 -8 16 l-7 30 -5 -32z"/>
<path d="M521 5190 c0 -8 4 -24 9 -35 5 -13 9 -14 9 -5 0 8 -4 24 -9 35 -5 13
-9 14 -9 5z"/>
<path d="M552 5175 c0 -16 2 -22 5 -12 2 9 2 23 0 30 -3 6 -5 -1 -5 -18z"/>
<path d="M5431 5164 c0 -11 3 -14 6 -6 3 7 2 16 -1 19 -3 4 -6 -2 -5 -13z"/>
<path d="M651 5154 c0 -11 3 -14 6 -6 3 7 2 16 -1 19 -3 4 -6 -2 -5 -13z"/>
<path d="M13851 5154 c0 -11 3 -14 6 -6 3 7 2 16 -1 19 -3 4 -6 -2 -5 -13z"/>
<path d="M665 5130 c-3 -5 -1 -10 4 -10 6 0 11 5 11 10 0 6 -2 10 -4 10 -3 0
-8 -4 -11 -10z"/>
<path d="M545 5110 c3 -5 8 -10 11 -10 2 0 4 5 4 10 0 6 -5 10 -11 10 -5 0 -7
-4 -4 -10z"/>
<path d="M13656 5015 c-23 -54 -18 -68 5 -16 11 24 17 46 15 49 -3 2 -12 -13
-20 -33z"/>
<path d="M13806 5025 c-16 -12 -17 -15 -4 -15 9 0 18 7 22 15 7 18 6 18 -18 0z"/>
<path d="M13775 4980 c-3 -5 -2 -10 4 -10 5 0 13 5 16 10 3 6 2 10 -4 10 -5 0
-13 -4 -16 -10z"/>
<path d="M732 4930 c0 -14 2 -19 5 -12 2 6 2 18 0 25 -3 6 -5 1 -5 -13z"/>
<path d="M751 4940 c0 -8 4 -22 9 -30 12 -18 12 -2 0 25 -6 13 -9 15 -9 5z"/>
<path d="M611 4914 c0 -11 3 -14 6 -6 3 7 2 16 -1 19 -3 4 -6 -2 -5 -13z"/>
<path d="M621 4874 c0 -11 3 -14 6 -6 3 7 2 16 -1 19 -3 4 -6 -2 -5 -13z"/>
<path d="M13720 4777 c0 -1 -4 -18 -10 -36 -5 -19 -6 -30 -1 -25 10 11 24 64
16 64 -3 0 -5 -1 -5 -3z"/>
<path d="M13561 4744 c0 -11 3 -14 6 -6 3 7 2 16 -1 19 -3 4 -6 -2 -5 -13z"/>
<path d="M13510 4699 c0 -6 -21 -59 -46 -118 -25 -58 -53 -124 -62 -146 -32
-76 -259 -520 -305 -595 -25 -41 -57 -97 -71 -123 -30 -56 -217 -343 -286
-437 -57 -79 -84 -120 -78 -120 3 0 18 19 34 42 16 23 41 55 56 72 15 17 34
44 43 61 17 34 40 65 47 65 3 0 5 -8 4 -17 -1 -20 26 -25 30 -5 1 7 0 8 -3 2
-10 -21 -23 -9 -19 18 3 30 35 92 47 92 4 0 9 -5 11 -12 3 -9 6 -9 12 0 4 7 2
12 -3 12 -19 0 -12 19 32 88 24 37 54 83 66 104 12 20 29 39 38 42 9 4 13 9
10 12 -8 8 32 87 49 97 7 4 11 13 8 21 -3 7 2 19 11 26 8 7 15 18 15 24 1 18
40 64 40 45 0 -8 -5 -20 -11 -26 -8 -8 -8 -13 0 -17 6 -4 12 1 13 11 4 44 5
59 7 75 0 10 7 16 14 14 6 -1 9 -1 5 1 -14 8 -8 25 6 20 10 -4 13 -1 10 8 -3
8 30 87 74 177 44 90 86 178 93 196 9 25 14 30 21 20 6 -9 7 -5 3 11 -5 15 -3
21 3 17 6 -4 8 2 5 14 -3 12 0 20 6 20 16 0 65 50 57 58 -4 3 -13 -4 -22 -16
-30 -43 -30 -21 -1 43 17 35 33 62 36 61 3 -2 7 14 8 35 2 21 0 39 -2 39 -3 0
-5 -5 -5 -11z"/>
<path d="M900 4616 c0 -10 40 -90 40 -80 0 15 -29 84 -35 84 -3 0 -5 -2 -5 -4z"/>
<path d="M13611 4555 c0 -5 4 -19 9 -30 7 -19 8 -19 18 5 11 28 6 42 -7 21 -7
-11 -10 -11 -14 0 -3 8 -5 10 -6 4z"/>
<path d="M13655 4538 c-4 -13 -17 -45 -30 -73 -12 -27 -28 -64 -36 -82 -10
-25 -16 -29 -27 -21 -11 10 -12 6 -7 -24 5 -27 2 -39 -12 -53 -10 -10 -19 -28
-20 -40 -1 -12 -11 -37 -22 -56 -18 -29 -21 -31 -21 -12 0 12 5 25 10 28 6 3
10 12 10 18 -1 20 -30 -25 -30 -46 0 -11 -4 -15 -12 -11 -7 4 -8 3 -4 -5 4 -6
12 -8 18 -5 14 9 2 -28 -28 -88 -26 -52 -40 -62 -30 -23 8 31 -2 33 -13 3 -5
-14 -5 -25 1 -29 8 -5 -25 -84 -41 -99 -4 -3 -12 -18 -20 -35 -7 -16 -17 -37
-22 -45 -6 -8 -17 -32 -26 -52 -9 -21 -20 -35 -24 -32 -5 3 -6 -2 -3 -10 3 -9
1 -16 -5 -16 -6 0 -11 -6 -11 -14 0 -7 -7 -19 -15 -26 -12 -10 -15 -10 -15 0
0 31 -13 -3 -15 -40 -2 -39 0 -37 57 62 97 166 228 417 288 553 12 28 33 73
45 100 52 112 84 195 75 195 -5 0 -12 -10 -15 -22z"/>
<path d="M13603 4498 c1 -15 6 -23 11 -18 4 4 4 16 -2 26 -9 16 -10 14 -9 -8z"/>
<path d="M13489 4493 c-13 -16 -12 -17 4 -4 16 13 21 21 13 21 -2 0 -10 -8
-17 -17z"/>
<path d="M970 4451 c0 -6 4 -13 10 -16 6 -3 7 1 4 9 -7 18 -14 21 -14 7z"/>
<path d="M990 4418 c0 -11 30 -78 35 -78 3 0 -2 17 -10 37 -15 36 -25 52 -25
41z"/>
<path d="M780 4405 c0 -5 5 -17 10 -25 5 -8 10 -10 10 -5 0 6 -5 17 -10 25 -5
8 -10 11 -10 5z"/>
<path d="M800 4357 c0 -2 16 -35 35 -73 20 -38 33 -58 29 -44 -3 14 -12 34
-18 45 -7 11 -16 32 -20 48 -3 15 -11 27 -16 27 -6 0 -10 -1 -10 -3z"/>
<path d="M13400 4349 c0 -5 5 -7 10 -4 6 3 10 8 10 11 0 2 -4 4 -10 4 -5 0
-10 -5 -10 -11z"/>
<path d="M13528 4337 c-3 -19 -2 -25 4 -19 6 6 8 18 6 28 -3 14 -5 12 -10 -9z"/>
<path d="M13337 4243 c-4 -3 -7 -11 -7 -17 0 -6 5 -5 12 2 6 6 9 14 7 17 -3 3
-9 2 -12 -2z"/>
<path d="M13341 4199 c-8 -20 -10 -21 -10 -4 -1 14 -4 16 -12 8 -9 -9 -8 -16
3 -27 14 -13 17 -12 27 11 6 14 9 28 7 31 -3 3 -10 -6 -15 -19z"/>
<path d="M13451 4204 c0 -11 3 -14 6 -6 3 7 2 16 -1 19 -3 4 -6 -2 -5 -13z"/>
<path d="M900 4150 c1 -8 14 -40 31 -70 16 -30 27 -44 23 -30 -9 34 -54 118
-54 100z"/>
<path d="M13372 4052 c-11 -25 -11 -25 4 -10 9 9 15 21 13 27 -2 6 -10 -2 -17
-17z"/>
<path d="M13250 4055 c0 -5 5 -17 10 -25 5 -8 10 -10 10 -5 0 6 -5 17 -10 25
-5 8 -10 11 -10 5z"/>
<path d="M13370 3995 c0 -8 2 -15 4 -15 2 0 6 7 10 15 3 8 1 15 -4 15 -6 0
-10 -7 -10 -15z"/>
<path d="M980 3996 c0 -11 40 -86 45 -86 3 0 -4 19 -16 43 -23 45 -29 54 -29
43z"/>
<path d="M13290 3910 c0 -8 5 -22 10 -30 9 -13 10 -13 10 0 0 8 -5 22 -10 30
-9 13 -10 13 -10 0z"/>
<path d="M1030 3891 c0 -6 4 -13 10 -16 6 -3 7 1 4 9 -7 18 -14 21 -14 7z"/>
<path d="M13141 3854 c0 -11 3 -14 6 -6 3 7 2 16 -1 19 -3 4 -6 -2 -5 -13z"/>
<path d="M13166 3855 c-3 -8 -1 -15 4 -15 6 0 10 7 10 15 0 8 -2 15 -4 15 -2
0 -6 -7 -10 -15z"/>
<path d="M13281 3853 c-1 -17 16 -25 25 -12 4 7 3 9 -4 5 -5 -3 -13 0 -15 6
-4 9 -6 10 -6 1z"/>
<path d="M13145 3589 c-4 -6 -5 -12 -2 -15 2 -3 7 2 10 11 7 17 1 20 -8 4z"/>
<path d="M13155 3556 c-16 -28 -31 -43 -40 -40 -7 3 -19 -4 -25 -16 -9 -17
-14 -19 -26 -9 -9 7 -14 8 -14 1 0 -23 22 -23 46 -1 35 32 30 6 -8 -46 -18
-25 -51 -72 -72 -105 -29 -45 -42 -58 -49 -48 -6 9 -7 8 -3 -5 7 -23 -34 -89
-52 -82 -7 3 -10 0 -7 -5 3 -6 3 -15 -1 -22 -5 -8 -10 -6 -15 8 -4 13 -6 6 -6
-19 1 -26 -4 -42 -15 -48 -9 -5 -27 -26 -39 -47 -13 -20 -32 -49 -43 -63 -12
-15 -30 -39 -41 -54 -11 -16 -27 -36 -35 -44 -22 -22 -72 -91 -67 -91 7 0 156
185 198 244 19 27 48 68 64 91 64 90 245 364 245 370 0 3 12 22 26 41 15 19
22 34 16 34 -6 0 -23 -20 -37 -44z"/>
<path d="M12943 3530 c-11 -16 -10 -18 2 -14 8 4 15 12 15 20 0 19 -3 18 -17
-6z"/>
<path d="M12890 3449 c0 -5 5 -7 10 -4 6 3 10 8 10 11 0 2 -4 4 -10 4 -5 0
-10 -5 -10 -11z"/>
<path d="M12965 3350 c-3 -5 -2 -17 3 -26 8 -14 10 -14 21 0 13 15 8 36 -9 36
-5 0 -12 -4 -15 -10z m25 -10 c0 -5 -4 -10 -10 -10 -5 0 -10 5 -10 10 0 6 5
10 10 10 6 0 10 -4 10 -10z"/>
<path d="M12922 3250 c-7 -11 -9 -20 -4 -20 4 0 13 9 20 20 7 11 9 20 4 20 -4
0 -13 -9 -20 -20z"/>
<path d="M12776 3228 l-17 -33 20 24 c18 20 27 41 18 41 -1 0 -11 -15 -21 -32z"/>
<path d="M12630 3130 c-6 -11 -9 -20 -8 -20 2 0 11 9 21 20 9 11 13 20 7 20
-5 0 -14 -9 -20 -20z"/>
<path d="M12800 3111 c0 -6 4 -13 10 -16 6 -3 7 1 4 9 -7 18 -14 21 -14 7z"/>
<path d="M12592 3080 c-18 -29 -15 -38 4 -12 9 13 14 25 12 27 -2 2 -9 -5 -16
-15z"/>
<path d="M12519 2983 c-13 -16 -12 -17 4 -4 9 7 17 15 17 17 0 8 -8 3 -21 -13z"/>
<path d="M12470 2925 c-7 -9 -11 -17 -9 -20 3 -2 10 5 17 15 14 24 10 26 -8 5z"/>
<path d="M12591 2761 c-43 -54 -39 -63 4 -11 19 23 35 44 35 46 0 10 -11 1
-39 -35z"/>
<path d="M12521 2678 c-14 -23 -14 -23 8 -4 22 20 25 26 13 26 -4 0 -13 -10
-21 -22z"/>
</g>
</svg>
